<?xml version="1.0" encoding="UTF-8" standalone="no"?><!DOCTYPE svg PUBLIC "-//W3C//DTD SVG 1.1//EN" "http://www.w3.org/Graphics/SVG/1.1/DTD/svg11.dtd"><svg width="100%" height="100%" viewBox="0 0 362 161" version="1.1" xmlns="http://www.w3.org/2000/svg" xmlns:xlink="http://www.w3.org/1999/xlink" xml:space="preserve" xmlns:serif="http://www.serif.com/" style="fill-rule:evenodd;clip-rule:evenodd;stroke-linejoin:round;stroke-miterlimit:2;"><rect id="logo-malditogenio-simpleficado-azul" x="0" y="0" width="361.992" height="160.758" style="fill:none;"/><clipPath id="_clip1"><rect x="0" y="0" width="361.992" height="160.758"/></clipPath><g clip-path="url(#_clip1)"><g><g><g><path d="M77.562,124.887c-0,22.7 -15.8,36.5 -36.6,36.5c-23.4,0 -40.2,-17.2 -40.2,-38.6c-0,-21.6 17.1,-38.8 39,-38.8c14.2,0 26.2,7 32.5,17l-14.4,8.3c-3.1,-4.9 -9.8,-8.7 -18.2,-8.7c-12.5,0 -21.9,9.2 -21.9,22.3c-0,12.6 8.9,21.9 23.4,21.9c9.9,0 16.4,-4.4 19,-11.5l-19.9,0l-0,-14.9l37.3,0l-0,6.5Z" style="fill:#1b32f5;fill-rule:nonzero;"/><path d="M111.462,147.187c4.4,0 8.1,-1.7 10.2,-4l12.7,7.3c-5.2,7.2 -13.1,10.9 -23.2,10.9c-18.2,0 -29.4,-12.2 -29.4,-28c-0,-15.8 11.5,-28 28.3,-28c15.5,0 27,12 27,28c-0,2.2 -0.2,4.4 -0.6,6.4l-37.7,0c2,5.5 6.9,7.4 12.7,7.4Zm9.8,-19.3c-1.7,-6.2 -6.5,-8.4 -11.3,-8.4c-6.1,0 -10.1,3 -11.6,8.4l22.9,0Z" style="fill:#1b32f5;fill-rule:nonzero;"/><path d="M196.162,127.387l-0,32.6l-15.9,0l-0,-30.3c-0,-6.6 -4.1,-9.7 -9.2,-9.7c-5.8,0 -9.9,3.4 -9.9,10.9l-0,29l-15.9,0l-0,-53.1l15.9,0l-0,5c2.9,-3.9 8.2,-6.5 15.2,-6.5c10.6,0.1 19.8,7.7 19.8,22.1Z" style="fill:#1b32f5;fill-rule:nonzero;"/><path d="M203.362,92.587c-0,-5.2 4.4,-9.6 9.6,-9.6c5.2,0 9.6,4.4 9.6,9.6c-0,5.2 -4.4,9.6 -9.6,9.6c-5.3,0 -9.6,-4.4 -9.6,-9.6Zm1.6,14.3l15.9,0l-0,53.1l-15.9,0l-0,-53.1Z" style="fill:#1b32f5;fill-rule:nonzero;"/><path d="M227.762,133.387c-0,-15.8 12.5,-28 28.2,-28c15.6,0 28.2,12.2 28.2,28c-0,15.8 -12.5,28 -28.2,28c-15.7,0.1 -28.2,-12.1 -28.2,-28Zm40.4,0c-0,-7.5 -5.3,-12.5 -12.2,-12.5c-6.9,0 -12.2,5 -12.2,12.5c-0,7.5 5.3,12.5 12.2,12.5c6.9,0.1 12.2,-4.9 12.2,-12.5Z" style="fill:#1b32f5;fill-rule:nonzero;"/><path d="M290.962,149.787c0.7,-5.5 5.8,-9.4 11.3,-8.7c5.5,0.7 9.4,5.8 8.7,11.3c-0.7,5.5 -5.8,9.4 -11.3,8.7c-5.5,-0.7 -9.4,-5.8 -8.7,-11.3Zm6.3,-44l2.8,-21.1l19,2.5l-2.8,21.1l-6.6,25.9l-12.6,-1.7l0.2,-26.7Z" style="fill:#1b32f5;fill-rule:nonzero;"/></g><g><path d="M75.162,74.887l-17.1,0l-0,-43.2l-19.2,31.6l-1.9,0l-19.2,-31.6l-0,43.2l-17,0l-0,-74.4l17,0l20.2,33l20.2,-33l17,0l-0,74.4Z" style="fill:#1b32f5;"/><path d="M138.662,21.787l-0,53.1l-15.9,0l-0,-5c-3.5,4 -8.7,6.5 -15.8,6.5c-13.9,0 -25.4,-12.2 -25.4,-28c-0,-15.8 11.5,-28 25.4,-28c7.1,0 12.3,2.4 15.8,6.5l-0,-5l15.9,0l-0,-0.1Zm-15.9,26.6c-0,-8 -5.3,-13 -12.6,-13c-7.3,0 -12.6,5 -12.6,13c-0,8 5.3,13 12.6,13c7.3,-0.1 12.6,-5.1 12.6,-13Z" style="fill:#1b32f5;"/><rect x="148.262" y="-2.613" width="15.9" height="77.5" style="fill:#1b32f5;"/><path d="M227.062,0.587l-0,74.4l-15.9,0l-0,-5c-3.5,4 -8.7,6.5 -15.8,6.5c-13.9,0 -25.4,-12.2 -25.4,-28c-0,-15.8 11.5,-28 25.4,-28c7.1,0 12.3,2.4 15.8,6.5l-0,-26.2l15.9,0l-0,-0.2Zm-15.9,47.8c-0,-8 -5.3,-13 -12.6,-13c-7.3,0 -12.6,5 -12.6,13c-0,8 5.3,13 12.6,13c7.2,-0.1 12.6,-5.1 12.6,-13Z" style="fill:#1b32f5;"/><path d="M236.162,7.587c-0,-5.2 4.4,-9.6 9.6,-9.6c5.2,0 9.6,4.4 9.6,9.6c-0,5.2 -4.4,9.6 -9.6,9.6c-5.2,-0.1 -9.6,-4.4 -9.6,-9.6Zm1.6,14.2l15.9,0l-0,53.1l-15.9,0l-0,-53.1Z" style="fill:#1b32f5;"/><path d="M286.662,37.087l-0,18.8c-0,4.6 3.9,5 10.9,4.6l-0,14.4c-20.8,2.1 -26.9,-4.1 -26.9,-19l-0,-18.8l-8.5,0l-0,-15.3l8.5,0l-0,-10.1l15.9,-4.8l-0,14.9l10.9,0l-0,15.3l-10.8,0Z" style="fill:#1b32f5;"/><path d="M304.062,48.387c-0,-15.8 12.5,-28 28.2,-28c15.6,0 28.2,12.2 28.2,28c-0,15.8 -12.5,28 -28.2,28c-15.6,0 -28.2,-12.2 -28.2,-28Zm40.4,0c-0,-7.5 -5.3,-12.5 -12.2,-12.5c-6.9,0 -12.2,5 -12.2,12.5c-0,7.5 5.3,12.5 12.2,12.5c6.9,0 12.2,-5 12.2,-12.5Z" style="fill:#1b32f5;"/></g></g></g></g></svg>